# xmcd
#
# Track frame offsets:
#  150
#  10957
#  20283
#  30541
#  43215
#  54934
#  65153
#  77514
#  86788
#  100468
#  109653
#  121343
#  130647
#  147685
#  161713
#
# Disc length: 2369 seconds
#
# Revision: 0
# Processed by: cddbd v1.5.2PL0 Copyright (c) Steve Scherf et al.
# Submitted via: Collectorz.com_Music_Collector 6.9
#
DISCID=ca093f0f
DTITLE=Various Artist - Country Cool Vol.2 - Stars on Stage CD2
DYEAR=1900
DGENRE=
TTITLE0=Tom T Hall - Fox On the Run
TTITLE1=Loretta Lynn - Your Squaw Is On The Warpath
TTITLE2=Jim Reeves - Anna Marie
TTITLE3=Charley Pride - Help Me Make It Through The Night
TTITLE4=Brenda Lee - Silver Threads and Golden Needles
TTITLE5=Willie Nelson - On The Road Again
TTITLE6=Johnny Cash - Folsom Prison Blues
TTITLE7=Loretta Lynn - Fist City
TTITLE8=Jerry Lee lewis - Another Place Another Time
TTITLE9=Jim Reeves - Billy Bayou
TTITLE10=Charley Pride - Louisiana Man
TTITLE11=Loretta Lynn - Y'all Come
TTITLE12=Johnny Cash - Sunday Morning Coming Down
TTITLE13=Willie Nelson - Good hearted Woman
TTITLE14=Brenda Lee - Coming On Strong
EXTD=
EXTT0=
EXTT1=
EXTT2=
EXTT3=
EXTT4=
EXTT5=
EXTT6=
EXTT7=
EXTT8=
EXTT9=
EXTT10=
EXTT11=
EXTT12=
EXTT13=
EXTT14=
PLAYORDER=
